<svg width="34" height="28" viewBox="0 0 34 28" fill="none" xmlns="http://www.w3.org/2000/svg">
<path d="M25.3335 19C24.1668 19 23.1807 18.5972 22.3752 17.7917C21.5696 16.9861 21.1668 16 21.1668 14.8334C21.1668 13.6667 21.5696 12.6806 22.3752 11.875C23.1807 11.0695 24.1668 10.6667 25.3335 10.6667C26.5002 10.6667 27.4863 11.0695 28.2918 11.875C29.0974 12.6806 29.5002 13.6667 29.5002 14.8334C29.5002 16 29.0974 16.9861 28.2918 17.7917C27.4863 18.5972 26.5002 19 25.3335 19ZM17.0002 27.3334V25C17.0002 24.3334 17.1738 23.7153 17.521 23.1459C17.8682 22.5764 18.3613 22.1667 19.0002 21.9167C20.0002 21.5 21.0349 21.1875 22.1043 20.9792C23.1738 20.7709 24.2502 20.6667 25.3335 20.6667C26.4168 20.6667 27.4932 20.7709 28.5627 20.9792C29.6321 21.1875 30.6668 21.5 31.6668 21.9167C32.3057 22.1667 32.7988 22.5764 33.146 23.1459C33.4932 23.7153 33.6668 24.3334 33.6668 25V27.3334H17.0002ZM13.6668 14C11.8335 14 10.2641 13.3472 8.9585 12.0417C7.65294 10.7361 7.00016 9.16669 7.00016 7.33335C7.00016 5.50002 7.65294 3.93058 8.9585 2.62502C10.2641 1.31946 11.8335 0.666687 13.6668 0.666687C15.5002 0.666687 17.0696 1.31946 18.3752 2.62502C19.6807 3.93058 20.3335 5.50002 20.3335 7.33335C20.3335 9.16669 19.6807 10.7361 18.3752 12.0417C17.0696 13.3472 15.5002 14 13.6668 14ZM0.333496 27.3334V22.6667C0.333496 21.7222 0.569607 20.8542 1.04183 20.0625C1.51405 19.2709 2.16683 18.6667 3.00016 18.25C4.66683 17.4167 6.396 16.7778 8.18766 16.3334C9.97933 15.8889 11.8057 15.6667 13.6668 15.6667C14.6391 15.6667 15.6113 15.75 16.5835 15.9167C17.5557 16.0834 18.5279 16.2778 19.5002 16.5L16.6668 19.3334C16.1668 19.1945 15.6668 19.1042 15.1668 19.0625C14.6668 19.0209 14.1668 19 13.6668 19C12.0557 19 10.4793 19.1945 8.93766 19.5834C7.396 19.9722 5.91683 20.5278 4.50016 21.25C4.22238 21.3889 4.01405 21.5834 3.87516 21.8334C3.73627 22.0834 3.66683 22.3611 3.66683 22.6667V24H13.6668V27.3334H0.333496ZM13.6668 10.6667C14.5835 10.6667 15.3682 10.3403 16.021 9.68752C16.6738 9.03474 17.0002 8.25002 17.0002 7.33335C17.0002 6.41669 16.6738 5.63196 16.021 4.97919C15.3682 4.32641 14.5835 4.00002 13.6668 4.00002C12.7502 4.00002 11.9654 4.32641 11.3127 4.97919C10.6599 5.63196 10.3335 6.41669 10.3335 7.33335C10.3335 8.25002 10.6599 9.03474 11.3127 9.68752C11.9654 10.3403 12.7502 10.6667 13.6668 10.6667Z" fill="#3632E5"/>
</svg>
