<svg width="12" height="21" viewBox="0 0 12 21" fill="none" xmlns="http://www.w3.org/2000/svg">
<path d="M4.8747 20.8846V18.4038C3.85547 18.173 2.97566 17.7307 2.23528 17.0769C1.49489 16.423 0.951623 15.5 0.605469 14.3077L2.74008 13.4423C3.02855 14.3654 3.45643 15.0673 4.02374 15.548C4.59105 16.0288 5.33624 16.2692 6.25932 16.2692C7.04778 16.2692 7.71605 16.0913 8.26412 15.7355C8.8122 15.3798 9.08624 14.8269 9.08624 14.0769C9.08624 13.4038 8.8747 12.8702 8.45162 12.4759C8.02855 12.0817 7.04778 11.6346 5.50932 11.1346C3.85547 10.6154 2.72085 9.99516 2.10547 9.27401C1.49008 8.55286 1.18239 7.67305 1.18239 6.63459C1.18239 5.38459 1.58624 4.41343 2.39393 3.72113C3.20162 3.02882 4.02855 2.63459 4.8747 2.53843V0.115356H7.18239V2.53843C8.14393 2.69228 8.9372 3.04324 9.5622 3.59132C10.1872 4.13939 10.6439 4.80766 10.9324 5.59613L8.79778 6.5192C8.56701 5.90382 8.24009 5.44228 7.81701 5.13459C7.39393 4.82689 6.81701 4.67305 6.08624 4.67305C5.24009 4.67305 4.59585 4.86055 4.15355 5.23555C3.71124 5.61055 3.49008 6.07689 3.49008 6.63459C3.49008 7.2692 3.77855 7.7692 4.35547 8.13459C4.93239 8.49997 5.93239 8.88459 7.35547 9.28843C8.68239 9.67305 9.6872 10.2836 10.3699 11.1202C11.0526 11.9567 11.3939 12.923 11.3939 14.0192C11.3939 15.3846 10.9901 16.423 10.1824 17.1346C9.3747 17.8461 8.3747 18.2884 7.18239 18.4615V20.8846H4.8747Z" fill="#00F719"/>
</svg>
