<svg width="31" height="31" viewBox="0 0 31 31" fill="none" xmlns="http://www.w3.org/2000/svg">
<path d="M8.49788 23.9171C8.97011 23.9171 9.36594 23.7574 9.68538 23.4379C10.0048 23.1185 10.1646 22.7226 10.1646 22.2504C10.1646 21.7782 10.0048 21.3824 9.68538 21.0629C9.36594 20.7435 8.97011 20.5837 8.49788 20.5837C8.02566 20.5837 7.62983 20.7435 7.31038 21.0629C6.99094 21.3824 6.83122 21.7782 6.83122 22.2504C6.83122 22.7226 6.99094 23.1185 7.31038 23.4379C7.62983 23.7574 8.02566 23.9171 8.49788 23.9171ZM8.49788 17.2504C8.97011 17.2504 9.36594 17.0907 9.68538 16.7712C10.0048 16.4518 10.1646 16.056 10.1646 15.5837C10.1646 15.1115 10.0048 14.7157 9.68538 14.3962C9.36594 14.0768 8.97011 13.9171 8.49788 13.9171C8.02566 13.9171 7.62983 14.0768 7.31038 14.3962C6.99094 14.7157 6.83122 15.1115 6.83122 15.5837C6.83122 16.056 6.99094 16.4518 7.31038 16.7712C7.62983 17.0907 8.02566 17.2504 8.49788 17.2504ZM8.49788 10.5837C8.97011 10.5837 9.36594 10.424 9.68538 10.1046C10.0048 9.78513 10.1646 9.3893 10.1646 8.91707C10.1646 8.44485 10.0048 8.04902 9.68538 7.72957C9.36594 7.41013 8.97011 7.25041 8.49788 7.25041C8.02566 7.25041 7.62983 7.41013 7.31038 7.72957C6.99094 8.04902 6.83122 8.44485 6.83122 8.91707C6.83122 9.3893 6.99094 9.78513 7.31038 10.1046C7.62983 10.424 8.02566 10.5837 8.49788 10.5837ZM13.4979 23.9171H23.4979V20.5837H13.4979V23.9171ZM13.4979 17.2504H23.4979V13.9171H13.4979V17.2504ZM13.4979 10.5837H23.4979V7.25041H13.4979V10.5837ZM3.49788 30.5837C2.58122 30.5837 1.7965 30.2574 1.14372 29.6046C0.49094 28.9518 0.164551 28.1671 0.164551 27.2504V3.91707C0.164551 3.00041 0.49094 2.21568 1.14372 1.56291C1.7965 0.910129 2.58122 0.58374 3.49788 0.58374H26.8312C27.7479 0.58374 28.5326 0.910129 29.1854 1.56291C29.8382 2.21568 30.1646 3.00041 30.1646 3.91707V27.2504C30.1646 28.1671 29.8382 28.9518 29.1854 29.6046C28.5326 30.2574 27.7479 30.5837 26.8312 30.5837H3.49788ZM3.49788 27.2504H26.8312V3.91707H3.49788V27.2504Z" fill="#0BF1C7"/>
</svg>
