<svg width="30" height="31" viewBox="0 0 30 31" fill="none" xmlns="http://www.w3.org/2000/svg">
<mask id="mask0_42_1548" style="mask-type:alpha" maskUnits="userSpaceOnUse" x="0" y="0" width="30" height="31">
<rect y="0.5" width="30" height="30" fill="#D9D9D9"/>
</mask>
<g mask="url(#mask0_42_1548)">
<path d="M5 24.25V21.75H7.5V13C7.5 11.2708 8.02083 9.73438 9.0625 8.39062C10.1042 7.04688 11.4583 6.16667 13.125 5.75V4.875C13.125 4.35417 13.3073 3.91146 13.6719 3.54688C14.0365 3.18229 14.4792 3 15 3C15.5208 3 15.9635 3.18229 16.3281 3.54688C16.6927 3.91146 16.875 4.35417 16.875 4.875V5.75C18.5417 6.16667 19.8958 7.04688 20.9375 8.39062C21.9792 9.73438 22.5 11.2708 22.5 13V21.75H25V24.25H5ZM15 28C14.3125 28 13.724 27.7552 13.2344 27.2656C12.7448 26.776 12.5 26.1875 12.5 25.5H17.5C17.5 26.1875 17.2552 26.776 16.7656 27.2656C16.276 27.7552 15.6875 28 15 28ZM10 21.75H20V13C20 11.625 19.5104 10.4479 18.5312 9.46875C17.5521 8.48958 16.375 8 15 8C13.625 8 12.4479 8.48958 11.4688 9.46875C10.4896 10.4479 10 11.625 10 13V21.75Z" fill="#828282"/>
</g>
<circle cx="22.5" cy="24.25" r="3.75" fill="#FF1A00"/>
</svg>
