<svg width="24" height="25" viewBox="0 0 24 25" fill="none" xmlns="http://www.w3.org/2000/svg">
<path d="M16.6665 11.3333C16.3359 11.3333 16.0589 11.2215 15.8353 10.9979C15.6116 10.7743 15.4998 10.4972 15.4998 10.1666C15.4998 9.83609 15.6116 9.55901 15.8353 9.3354C16.0589 9.11179 16.3359 8.99998 16.6665 8.99998C16.9971 8.99998 17.2741 9.11179 17.4978 9.3354C17.7214 9.55901 17.8332 9.83609 17.8332 10.1666C17.8332 10.4972 17.7214 10.7743 17.4978 10.9979C17.2741 11.2215 16.9971 11.3333 16.6665 11.3333ZM11.9998 11.3333C11.6693 11.3333 11.3922 11.2215 11.1686 10.9979C10.945 10.7743 10.8332 10.4972 10.8332 10.1666C10.8332 9.83609 10.945 9.55901 11.1686 9.3354C11.3922 9.11179 11.6693 8.99998 11.9998 8.99998C12.3304 8.99998 12.6075 9.11179 12.8311 9.3354C13.0547 9.55901 13.1665 9.83609 13.1665 10.1666C13.1665 10.4972 13.0547 10.7743 12.8311 10.9979C12.6075 11.2215 12.3304 11.3333 11.9998 11.3333ZM7.33317 11.3333C7.00261 11.3333 6.72553 11.2215 6.50192 10.9979C6.27831 10.7743 6.1665 10.4972 6.1665 10.1666C6.1665 9.83609 6.27831 9.55901 6.50192 9.3354C6.72553 9.11179 7.00261 8.99998 7.33317 8.99998C7.66372 8.99998 7.94081 9.11179 8.16442 9.3354C8.38803 9.55901 8.49984 9.83609 8.49984 10.1666C8.49984 10.4972 8.38803 10.7743 8.16442 10.9979C7.94081 11.2215 7.66372 11.3333 7.33317 11.3333ZM23.6665 24.1666V3.16665C23.6665 2.52498 23.438 1.97567 22.9811 1.51873C22.5241 1.06179 21.9748 0.833313 21.3332 0.833313H2.6665C2.02484 0.833313 1.47553 1.06179 1.01859 1.51873C0.561642 1.97567 0.333168 2.52498 0.333168 3.16665V17.1666C0.333168 17.8083 0.561642 18.3576 1.01859 18.8146C1.47553 19.2715 2.02484 19.5 2.6665 19.5H18.9998L23.6665 24.1666ZM19.9915 17.1666H2.6665V3.16665H21.3332V18.4791L19.9915 17.1666Z" fill="#828282"/>
</svg>
