<svg width="44" height="44" viewBox="0 0 44 44" fill="none" xmlns="http://www.w3.org/2000/svg">
<rect x="1.5" y="1.5" width="41" height="41" rx="20.5" fill="#6B0B00"/>
<rect x="1.5" y="1.5" width="41" height="41" rx="20.5" stroke="white" stroke-width="3"/>
<mask id="mask0_296_812" style="mask-type:alpha" maskUnits="userSpaceOnUse" x="10" y="10" width="24" height="24">
<rect x="10" y="10" width="24" height="24" fill="#D9D9D9"/>
</mask>
<g mask="url(#mask0_296_812)">
<path d="M15 29H16.425L26.2 19.225L24.775 17.8L15 27.575V29ZM13 31V26.75L26.2 13.575C26.4 13.3917 26.6208 13.25 26.8625 13.15C27.1042 13.05 27.3583 13 27.625 13C27.8917 13 28.15 13.05 28.4 13.15C28.65 13.25 28.8667 13.4 29.05 13.6L30.425 15C30.625 15.1833 30.7708 15.4 30.8625 15.65C30.9542 15.9 31 16.15 31 16.4C31 16.6667 30.9542 16.9208 30.8625 17.1625C30.7708 17.4042 30.625 17.625 30.425 17.825L17.25 31H13ZM25.475 18.525L24.775 17.8L26.2 19.225L25.475 18.525Z" fill="white"/>
</g>
</svg>
