<svg width="30" height="29" viewBox="0 0 30 29" fill="none" xmlns="http://www.w3.org/2000/svg">
<path d="M13.0168 21.0159L23.0043 11.0284L21.0209 9.04502L13.0168 17.0492L8.97927 13.0117L6.99594 14.995L13.0168 21.0159ZM15.0001 28.6659C13.0404 28.6659 11.1987 28.294 9.4751 27.5502C7.75149 26.8065 6.25219 25.7971 4.97719 24.5221C3.70219 23.2471 2.69281 21.7478 1.94906 20.0242C1.20531 18.3006 0.833435 16.4589 0.833435 14.4992C0.833435 12.5395 1.20531 10.6978 1.94906 8.97419C2.69281 7.25058 3.70219 5.75127 4.97719 4.47627C6.25219 3.20127 7.75149 2.1919 9.4751 1.44814C11.1987 0.704395 13.0404 0.33252 15.0001 0.33252C16.9598 0.33252 18.8015 0.704395 20.5251 1.44814C22.2487 2.1919 23.748 3.20127 25.023 4.47627C26.298 5.75127 27.3074 7.25058 28.0511 8.97419C28.7949 10.6978 29.1668 12.5395 29.1668 14.4992C29.1668 16.4589 28.7949 18.3006 28.0511 20.0242C27.3074 21.7478 26.298 23.2471 25.023 24.5221C23.748 25.7971 22.2487 26.8065 20.5251 27.5502C18.8015 28.294 16.9598 28.6659 15.0001 28.6659Z" fill="#03A600"/>
</svg>
