<svg width="17" height="12" viewBox="0 0 17 12" fill="none" xmlns="http://www.w3.org/2000/svg">
<path d="M9.40023 8.66667H10.7336V6.66667H12.7336V5.33333H10.7336V3.33333H9.40023V5.33333H7.40023V6.66667H9.40023V8.66667ZM4.06689 11.6667C2.85578 11.2444 1.88634 10.5139 1.15856 9.475C0.430783 8.43611 0.0668945 7.27778 0.0668945 6C0.0668945 4.72222 0.430783 3.56389 1.15856 2.525C1.88634 1.48611 2.85578 0.755556 4.06689 0.333333V1.8C3.24467 2.18889 2.59467 2.76111 2.11689 3.51667C1.63912 4.27222 1.40023 5.1 1.40023 6C1.40023 6.9 1.63912 7.72778 2.11689 8.48333C2.59467 9.23889 3.24467 9.81111 4.06689 10.2V11.6667ZM10.0669 12C9.23356 12 8.45301 11.8417 7.72523 11.525C6.99745 11.2083 6.36412 10.7806 5.82523 10.2417C5.28634 9.70278 4.85856 9.06944 4.54189 8.34167C4.22523 7.61389 4.06689 6.83333 4.06689 6C4.06689 5.16667 4.22523 4.38611 4.54189 3.65833C4.85856 2.93056 5.28634 2.29722 5.82523 1.75833C6.36412 1.21944 6.99745 0.791667 7.72523 0.475C8.45301 0.158333 9.23356 0 10.0669 0C10.9002 0 11.6808 0.158333 12.4086 0.475C13.1363 0.791667 13.7697 1.21944 14.3086 1.75833C14.8475 2.29722 15.2752 2.93056 15.5919 3.65833C15.9086 4.38611 16.0669 5.16667 16.0669 6C16.0669 6.83333 15.9086 7.61389 15.5919 8.34167C15.2752 9.06944 14.8475 9.70278 14.3086 10.2417C13.7697 10.7806 13.1363 11.2083 12.4086 11.525C11.6808 11.8417 10.9002 12 10.0669 12ZM10.0669 10.6667C11.3669 10.6667 12.4697 10.2139 13.3752 9.30833C14.2808 8.40278 14.7336 7.3 14.7336 6C14.7336 4.7 14.2808 3.59722 13.3752 2.69167C12.4697 1.78611 11.3669 1.33333 10.0669 1.33333C8.76689 1.33333 7.66412 1.78611 6.75856 2.69167C5.85301 3.59722 5.40023 4.7 5.40023 6C5.40023 7.3 5.85301 8.40278 6.75856 9.30833C7.66412 10.2139 8.76689 10.6667 10.0669 10.6667Z" fill="#828282"/>
</svg>
