<svg width="18" height="19" viewBox="0 0 18 19" fill="none" xmlns="http://www.w3.org/2000/svg">
<path d="M0.666672 19.0003V15.667H17.3333V19.0003H0.666672ZM4 12.3337H5.16667L11.6667 5.85449L10.4792 4.66699L4 11.167V12.3337ZM2.33334 14.0003V10.4587L11.6667 1.14616C11.8194 0.993381 11.9965 0.875326 12.1979 0.791992C12.3993 0.708659 12.6111 0.666992 12.8333 0.666992C13.0556 0.666992 13.2708 0.708659 13.4792 0.791992C13.6875 0.875326 13.875 1.00033 14.0417 1.16699L15.1875 2.33366C15.3542 2.48644 15.4757 2.66699 15.5521 2.87533C15.6285 3.08366 15.6667 3.29894 15.6667 3.52116C15.6667 3.72949 15.6285 3.93435 15.5521 4.13574C15.4757 4.33713 15.3542 4.52116 15.1875 4.68783L5.875 14.0003H2.33334Z" fill="#049CDD"/>
</svg>
