<svg width="152" height="140" viewBox="0 0 152 140" fill="none" xmlns="http://www.w3.org/2000/svg">
<rect width="152" height="140" fill="#3446CD" fill-opacity="0.15"/>
<path d="M69 79C68.45 79 67.9792 78.8042 67.5875 78.4125C67.1958 78.0208 67 77.55 67 77V63C67 62.45 67.1958 61.9792 67.5875 61.5875C67.9792 61.1958 68.45 61 69 61H78V63H69V77H83V68H85V77C85 77.55 84.8042 78.0208 84.4125 78.4125C84.0208 78.8042 83.55 79 83 79H69ZM81 67V65H79V63H81V61H83V63H85V65H83V67H81ZM70 75H82L78.25 70L75.25 74L73 71L70 75Z" fill="#3446CD"/>
</svg>
