<svg width="18" height="18" viewBox="0 0 18 18" fill="none" xmlns="http://www.w3.org/2000/svg">
<path d="M8.16687 13.1665H9.83354V9.83317H13.1669V8.1665H9.83354V4.83317H8.16687V8.1665H4.83354V9.83317H8.16687V13.1665ZM9.0002 17.3332C7.84742 17.3332 6.76409 17.1144 5.7502 16.6769C4.73631 16.2394 3.85437 15.6457 3.10437 14.8957C2.35437 14.1457 1.76062 13.2637 1.32312 12.2498C0.88562 11.2359 0.66687 10.1526 0.66687 8.99984C0.66687 7.84706 0.88562 6.76373 1.32312 5.74984C1.76062 4.73595 2.35437 3.854 3.10437 3.104C3.85437 2.354 4.73631 1.76025 5.7502 1.32275C6.76409 0.885254 7.84742 0.666504 9.0002 0.666504C10.153 0.666504 11.2363 0.885254 12.2502 1.32275C13.2641 1.76025 14.146 2.354 14.896 3.104C15.646 3.854 16.2398 4.73595 16.6773 5.74984C17.1148 6.76373 17.3335 7.84706 17.3335 8.99984C17.3335 10.1526 17.1148 11.2359 16.6773 12.2498C16.2398 13.2637 15.646 14.1457 14.896 14.8957C14.146 15.6457 13.2641 16.2394 12.2502 16.6769C11.2363 17.1144 10.153 17.3332 9.0002 17.3332ZM9.0002 15.6665C10.8613 15.6665 12.4377 15.0207 13.7294 13.729C15.021 12.4373 15.6669 10.8609 15.6669 8.99984C15.6669 7.13872 15.021 5.56234 13.7294 4.27067C12.4377 2.979 10.8613 2.33317 9.0002 2.33317C7.13909 2.33317 5.5627 2.979 4.27104 4.27067C2.97937 5.56234 2.33354 7.13872 2.33354 8.99984C2.33354 10.8609 2.97937 12.4373 4.27104 13.729C5.5627 15.0207 7.13909 15.6665 9.0002 15.6665Z" fill="#6B0B00"/>
</svg>
