<svg width="74" height="20" viewBox="0 0 74 20" fill="none" xmlns="http://www.w3.org/2000/svg">
<rect x="0.5" y="0.5" width="73" height="19" rx="3.5" fill="#FCE7F3"/>
<rect x="0.5" y="0.5" width="73" height="19" rx="3.5" stroke="#F9A8D4"/>
<path d="M16.4043 11.2227H17.8691C17.8223 11.7812 17.666 12.2793 17.4004 12.7168C17.1348 13.1504 16.7617 13.4922 16.2812 13.7422C15.8008 13.9922 15.2168 14.1172 14.5293 14.1172C14.002 14.1172 13.5273 14.0234 13.1055 13.8359C12.6836 13.6445 12.3223 13.375 12.0215 13.0273C11.7207 12.6758 11.4902 12.252 11.3301 11.7559C11.1738 11.2598 11.0957 10.7051 11.0957 10.0918V9.38281C11.0957 8.76953 11.1758 8.21484 11.3359 7.71875C11.5 7.22266 11.7344 6.79883 12.0391 6.44727C12.3438 6.0918 12.709 5.82031 13.1348 5.63281C13.5645 5.44531 14.0469 5.35156 14.582 5.35156C15.2617 5.35156 15.8359 5.47656 16.3047 5.72656C16.7734 5.97656 17.1367 6.32227 17.3945 6.76367C17.6562 7.20508 17.8164 7.71094 17.875 8.28125H16.4102C16.3711 7.91406 16.2852 7.59961 16.1523 7.33789C16.0234 7.07617 15.832 6.87695 15.5781 6.74023C15.3242 6.59961 14.9922 6.5293 14.582 6.5293C14.2461 6.5293 13.9531 6.5918 13.7031 6.7168C13.4531 6.8418 13.2441 7.02539 13.0762 7.26758C12.9082 7.50977 12.7812 7.80859 12.6953 8.16406C12.6133 8.51562 12.5723 8.91797 12.5723 9.37109V10.0918C12.5723 10.5215 12.6094 10.9121 12.6836 11.2637C12.7617 11.6113 12.8789 11.9102 13.0352 12.1602C13.1953 12.4102 13.3984 12.6035 13.6445 12.7402C13.8906 12.877 14.1855 12.9453 14.5293 12.9453C14.9473 12.9453 15.2852 12.8789 15.543 12.7461C15.8047 12.6133 16.002 12.4199 16.1348 12.166C16.2715 11.9082 16.3613 11.5938 16.4043 11.2227ZM22.6387 12.7285V9.70508C22.6387 9.47852 22.5977 9.2832 22.5156 9.11914C22.4336 8.95508 22.3086 8.82812 22.1406 8.73828C21.9766 8.64844 21.7695 8.60352 21.5195 8.60352C21.2891 8.60352 21.0898 8.64258 20.9219 8.7207C20.7539 8.79883 20.623 8.9043 20.5293 9.03711C20.4355 9.16992 20.3887 9.32031 20.3887 9.48828H18.9824C18.9824 9.23828 19.043 8.99609 19.1641 8.76172C19.2852 8.52734 19.4609 8.31836 19.6914 8.13477C19.9219 7.95117 20.1973 7.80664 20.5176 7.70117C20.8379 7.5957 21.1973 7.54297 21.5957 7.54297C22.0723 7.54297 22.4941 7.62305 22.8613 7.7832C23.2324 7.94336 23.5234 8.18555 23.7344 8.50977C23.9492 8.83008 24.0566 9.23242 24.0566 9.7168V12.5352C24.0566 12.8242 24.0762 13.084 24.1152 13.3145C24.1582 13.541 24.2188 13.7383 24.2969 13.9062V14H22.8496C22.7832 13.8477 22.7305 13.6543 22.6914 13.4199C22.6562 13.1816 22.6387 12.9512 22.6387 12.7285ZM22.8438 10.1445L22.8555 11.0176H21.8418C21.5801 11.0176 21.3496 11.043 21.1504 11.0938C20.9512 11.1406 20.7852 11.2109 20.6523 11.3047C20.5195 11.3984 20.4199 11.5117 20.3535 11.6445C20.2871 11.7773 20.2539 11.9277 20.2539 12.0957C20.2539 12.2637 20.293 12.418 20.3711 12.5586C20.4492 12.6953 20.5625 12.8027 20.7109 12.8809C20.8633 12.959 21.0469 12.998 21.2617 12.998C21.5508 12.998 21.8027 12.9395 22.0176 12.8223C22.2363 12.7012 22.4082 12.5547 22.5332 12.3828C22.6582 12.207 22.7246 12.041 22.7324 11.8848L23.1895 12.5117C23.1426 12.6719 23.0625 12.8438 22.9492 13.0273C22.8359 13.2109 22.6875 13.3867 22.5039 13.5547C22.3242 13.7188 22.1074 13.8535 21.8535 13.959C21.6035 14.0645 21.3145 14.1172 20.9863 14.1172C20.5723 14.1172 20.2031 14.0352 19.8789 13.8711C19.5547 13.7031 19.3008 13.4785 19.1172 13.1973C18.9336 12.9121 18.8418 12.5898 18.8418 12.2305C18.8418 11.8945 18.9043 11.5977 19.0293 11.3398C19.1582 11.0781 19.3457 10.8594 19.5918 10.6836C19.8418 10.5078 20.1465 10.375 20.5059 10.2852C20.8652 10.1914 21.2754 10.1445 21.7363 10.1445H22.8438ZM26.9336 9.01367V14H25.5215V7.66016H26.8516L26.9336 9.01367ZM26.6816 10.5957L26.2246 10.5898C26.2285 10.1406 26.291 9.72852 26.4121 9.35352C26.5371 8.97852 26.709 8.65625 26.9277 8.38672C27.1504 8.11719 27.416 7.91016 27.7246 7.76562C28.0332 7.61719 28.377 7.54297 28.7559 7.54297C29.0605 7.54297 29.3359 7.58594 29.582 7.67188C29.832 7.75391 30.0449 7.88867 30.2207 8.07617C30.4004 8.26367 30.5371 8.50781 30.6309 8.80859C30.7246 9.10547 30.7715 9.4707 30.7715 9.9043V14H29.3535V9.89844C29.3535 9.59375 29.3086 9.35352 29.2188 9.17773C29.1328 8.99805 29.0059 8.87109 28.8379 8.79688C28.6738 8.71875 28.4688 8.67969 28.2227 8.67969C27.9805 8.67969 27.7637 8.73047 27.5723 8.83203C27.3809 8.93359 27.2188 9.07227 27.0859 9.24805C26.957 9.42383 26.8574 9.62695 26.7871 9.85742C26.7168 10.0879 26.6816 10.334 26.6816 10.5957ZM34.8027 12.9922C35.0332 12.9922 35.2402 12.9473 35.4238 12.8574C35.6113 12.7637 35.7617 12.6348 35.875 12.4707C35.9922 12.3066 36.0566 12.1172 36.0684 11.9023H37.3984C37.3906 12.3125 37.2695 12.6855 37.0352 13.0215C36.8008 13.3574 36.4902 13.625 36.1035 13.8242C35.7168 14.0195 35.2891 14.1172 34.8203 14.1172C34.3359 14.1172 33.9141 14.0352 33.5547 13.8711C33.1953 13.7031 32.8965 13.4727 32.6582 13.1797C32.4199 12.8867 32.2402 12.5488 32.1191 12.166C32.002 11.7832 31.9434 11.373 31.9434 10.9355V10.7305C31.9434 10.293 32.002 9.88281 32.1191 9.5C32.2402 9.11328 32.4199 8.77344 32.6582 8.48047C32.8965 8.1875 33.1953 7.95898 33.5547 7.79492C33.9141 7.62695 34.334 7.54297 34.8145 7.54297C35.3223 7.54297 35.7676 7.64453 36.1504 7.84766C36.5332 8.04688 36.834 8.32617 37.0527 8.68555C37.2754 9.04102 37.3906 9.45508 37.3984 9.92773H36.0684C36.0566 9.69336 35.998 9.48242 35.8926 9.29492C35.791 9.10352 35.6465 8.95117 35.459 8.83789C35.2754 8.72461 35.0547 8.66797 34.7969 8.66797C34.5117 8.66797 34.2754 8.72656 34.0879 8.84375C33.9004 8.95703 33.7539 9.11328 33.6484 9.3125C33.543 9.50781 33.4668 9.72852 33.4199 9.97461C33.377 10.2168 33.3555 10.4688 33.3555 10.7305V10.9355C33.3555 11.1973 33.377 11.4512 33.4199 11.6973C33.4629 11.9434 33.5371 12.1641 33.6426 12.3594C33.752 12.5508 33.9004 12.7051 34.0879 12.8223C34.2754 12.9355 34.5137 12.9922 34.8027 12.9922ZM41.2773 14.1172C40.8086 14.1172 40.3848 14.041 40.0059 13.8887C39.6309 13.7324 39.3105 13.5156 39.0449 13.2383C38.7832 12.9609 38.582 12.6348 38.4414 12.2598C38.3008 11.8848 38.2305 11.4805 38.2305 11.0469V10.8125C38.2305 10.3164 38.3027 9.86719 38.4473 9.46484C38.5918 9.0625 38.793 8.71875 39.0508 8.43359C39.3086 8.14453 39.6133 7.92383 39.9648 7.77148C40.3164 7.61914 40.6973 7.54297 41.1074 7.54297C41.5605 7.54297 41.957 7.61914 42.2969 7.77148C42.6367 7.92383 42.918 8.13867 43.1406 8.41602C43.3672 8.68945 43.5352 9.01562 43.6445 9.39453C43.7578 9.77344 43.8145 10.1914 43.8145 10.6484V11.252H38.916V10.2383H42.4199V10.127C42.4121 9.87305 42.3613 9.63477 42.2676 9.41211C42.1777 9.18945 42.0391 9.00977 41.8516 8.87305C41.6641 8.73633 41.4141 8.66797 41.1016 8.66797C40.8672 8.66797 40.6582 8.71875 40.4746 8.82031C40.2949 8.91797 40.1445 9.06055 40.0234 9.24805C39.9023 9.43555 39.8086 9.66211 39.7422 9.92773C39.6797 10.1895 39.6484 10.4844 39.6484 10.8125V11.0469C39.6484 11.3242 39.6855 11.582 39.7598 11.8203C39.8379 12.0547 39.9512 12.2598 40.0996 12.4355C40.248 12.6113 40.4277 12.75 40.6387 12.8516C40.8496 12.9492 41.0898 12.998 41.3594 12.998C41.6992 12.998 42.002 12.9297 42.2676 12.793C42.5332 12.6562 42.7637 12.4629 42.959 12.2129L43.7031 12.9336C43.5664 13.1328 43.3887 13.3242 43.1699 13.5078C42.9512 13.6875 42.6836 13.834 42.3672 13.9473C42.0547 14.0605 41.6914 14.1172 41.2773 14.1172ZM46.4277 5V14H45.0098V5H46.4277ZM49.4863 5V14H48.0684V5H49.4863ZM53.8281 14.1172C53.3594 14.1172 52.9355 14.041 52.5566 13.8887C52.1816 13.7324 51.8613 13.5156 51.5957 13.2383C51.334 12.9609 51.1328 12.6348 50.9922 12.2598C50.8516 11.8848 50.7812 11.4805 50.7812 11.0469V10.8125C50.7812 10.3164 50.8535 9.86719 50.998 9.46484C51.1426 9.0625 51.3438 8.71875 51.6016 8.43359C51.8594 8.14453 52.1641 7.92383 52.5156 7.77148C52.8672 7.61914 53.248 7.54297 53.6582 7.54297C54.1113 7.54297 54.5078 7.61914 54.8477 7.77148C55.1875 7.92383 55.4688 8.13867 55.6914 8.41602C55.918 8.68945 56.0859 9.01562 56.1953 9.39453C56.3086 9.77344 56.3652 10.1914 56.3652 10.6484V11.252H51.4668V10.2383H54.9707V10.127C54.9629 9.87305 54.9121 9.63477 54.8184 9.41211C54.7285 9.18945 54.5898 9.00977 54.4023 8.87305C54.2148 8.73633 53.9648 8.66797 53.6523 8.66797C53.418 8.66797 53.209 8.71875 53.0254 8.82031C52.8457 8.91797 52.6953 9.06055 52.5742 9.24805C52.4531 9.43555 52.3594 9.66211 52.293 9.92773C52.2305 10.1895 52.1992 10.4844 52.1992 10.8125V11.0469C52.1992 11.3242 52.2363 11.582 52.3105 11.8203C52.3887 12.0547 52.502 12.2598 52.6504 12.4355C52.7988 12.6113 52.9785 12.75 53.1895 12.8516C53.4004 12.9492 53.6406 12.998 53.9102 12.998C54.25 12.998 54.5527 12.9297 54.8184 12.793C55.084 12.6562 55.3145 12.4629 55.5098 12.2129L56.2539 12.9336C56.1172 13.1328 55.9395 13.3242 55.7207 13.5078C55.502 13.6875 55.2344 13.834 54.918 13.9473C54.6055 14.0605 54.2422 14.1172 53.8281 14.1172ZM61.334 12.6875V5H62.752V14H61.4688L61.334 12.6875ZM57.209 10.9004V10.7773C57.209 10.2969 57.2656 9.85938 57.3789 9.46484C57.4922 9.06641 57.6562 8.72461 57.8711 8.43945C58.0859 8.15039 58.3477 7.92969 58.6562 7.77734C58.9648 7.62109 59.3125 7.54297 59.6992 7.54297C60.082 7.54297 60.418 7.61719 60.707 7.76562C60.9961 7.91406 61.2422 8.12695 61.4453 8.4043C61.6484 8.67773 61.8105 9.00586 61.9316 9.38867C62.0527 9.76758 62.1387 10.1895 62.1895 10.6543V11.0469C62.1387 11.5 62.0527 11.9141 61.9316 12.2891C61.8105 12.6641 61.6484 12.9883 61.4453 13.2617C61.2422 13.5352 60.9941 13.7461 60.7012 13.8945C60.4121 14.043 60.0742 14.1172 59.6875 14.1172C59.3047 14.1172 58.959 14.0371 58.6504 13.877C58.3457 13.7168 58.0859 13.4922 57.8711 13.2031C57.6562 12.9141 57.4922 12.5742 57.3789 12.1836C57.2656 11.7891 57.209 11.3613 57.209 10.9004ZM58.6211 10.7773V10.9004C58.6211 11.1895 58.6465 11.459 58.6973 11.709C58.752 11.959 58.8359 12.1797 58.9492 12.3711C59.0625 12.5586 59.209 12.707 59.3887 12.8164C59.5723 12.9219 59.791 12.9746 60.0449 12.9746C60.3652 12.9746 60.6289 12.9043 60.8359 12.7637C61.043 12.623 61.2051 12.4336 61.3223 12.1953C61.4434 11.9531 61.5254 11.6836 61.5684 11.3867V10.3262C61.5449 10.0957 61.4961 9.88086 61.4219 9.68164C61.3516 9.48242 61.2559 9.30859 61.1348 9.16016C61.0137 9.00781 60.8633 8.89062 60.6836 8.80859C60.5078 8.72266 60.2988 8.67969 60.0566 8.67969C59.7988 8.67969 59.5801 8.73438 59.4004 8.84375C59.2207 8.95312 59.0723 9.10352 58.9551 9.29492C58.8418 9.48633 58.7578 9.70898 58.7031 9.96289C58.6484 10.2168 58.6211 10.4883 58.6211 10.7773Z" fill="#9D174D"/>
</svg>
