<svg width="71" height="20" viewBox="0 0 71 20" fill="none" xmlns="http://www.w3.org/2000/svg">
<rect x="0.5" y="0.5" width="70" height="19" rx="3.5" fill="#D1FAE5"/>
<rect x="0.5" y="0.5" width="70" height="19" rx="3.5" stroke="#6EE7B7"/>
<path d="M13.8379 14H12.0156L12.0273 12.834H13.8379C14.3652 12.834 14.8066 12.7188 15.1621 12.4883C15.5215 12.2578 15.791 11.9277 15.9707 11.498C16.1543 11.0684 16.2461 10.5566 16.2461 9.96289V9.5C16.2461 9.03906 16.1934 8.63086 16.0879 8.27539C15.9863 7.91992 15.834 7.62109 15.6309 7.37891C15.4316 7.13672 15.1855 6.95312 14.8926 6.82812C14.6035 6.70312 14.2695 6.64062 13.8906 6.64062H11.9805V5.46875H13.8906C14.457 5.46875 14.9746 5.56445 15.4434 5.75586C15.9121 5.94336 16.3164 6.21484 16.6562 6.57031C17 6.92578 17.2637 7.35156 17.4473 7.84766C17.6309 8.34375 17.7227 8.89844 17.7227 9.51172V9.96289C17.7227 10.5762 17.6309 11.1309 17.4473 11.627C17.2637 12.123 17 12.5488 16.6562 12.9043C16.3125 13.2559 15.9023 13.5273 15.4258 13.7188C14.9531 13.9062 14.4238 14 13.8379 14ZM12.8301 5.46875V14H11.3594V5.46875H12.8301ZM21.8535 14.1172C21.3848 14.1172 20.9609 14.041 20.582 13.8887C20.207 13.7324 19.8867 13.5156 19.6211 13.2383C19.3594 12.9609 19.1582 12.6348 19.0176 12.2598C18.877 11.8848 18.8066 11.4805 18.8066 11.0469V10.8125C18.8066 10.3164 18.8789 9.86719 19.0234 9.46484C19.168 9.0625 19.3691 8.71875 19.627 8.43359C19.8848 8.14453 20.1895 7.92383 20.541 7.77148C20.8926 7.61914 21.2734 7.54297 21.6836 7.54297C22.1367 7.54297 22.5332 7.61914 22.873 7.77148C23.2129 7.92383 23.4941 8.13867 23.7168 8.41602C23.9434 8.68945 24.1113 9.01562 24.2207 9.39453C24.334 9.77344 24.3906 10.1914 24.3906 10.6484V11.252H19.4922V10.2383H22.9961V10.127C22.9883 9.87305 22.9375 9.63477 22.8438 9.41211C22.7539 9.18945 22.6152 9.00977 22.4277 8.87305C22.2402 8.73633 21.9902 8.66797 21.6777 8.66797C21.4434 8.66797 21.2344 8.71875 21.0508 8.82031C20.8711 8.91797 20.7207 9.06055 20.5996 9.24805C20.4785 9.43555 20.3848 9.66211 20.3184 9.92773C20.2559 10.1895 20.2246 10.4844 20.2246 10.8125V11.0469C20.2246 11.3242 20.2617 11.582 20.3359 11.8203C20.4141 12.0547 20.5273 12.2598 20.6758 12.4355C20.8242 12.6113 21.0039 12.75 21.2148 12.8516C21.4258 12.9492 21.666 12.998 21.9355 12.998C22.2754 12.998 22.5781 12.9297 22.8438 12.793C23.1094 12.6562 23.3398 12.4629 23.5352 12.2129L24.2793 12.9336C24.1426 13.1328 23.9648 13.3242 23.7461 13.5078C23.5273 13.6875 23.2598 13.834 22.9434 13.9473C22.6309 14.0605 22.2676 14.1172 21.8535 14.1172ZM27.0039 5V14H25.5859V5H27.0039ZM30.0625 7.66016V14H28.6445V7.66016H30.0625ZM28.5508 5.99609C28.5508 5.78125 28.6211 5.60352 28.7617 5.46289C28.9062 5.31836 29.1055 5.24609 29.3594 5.24609C29.6094 5.24609 29.8066 5.31836 29.9512 5.46289C30.0957 5.60352 30.168 5.78125 30.168 5.99609C30.168 6.20703 30.0957 6.38281 29.9512 6.52344C29.8066 6.66406 29.6094 6.73438 29.3594 6.73438C29.1055 6.73438 28.9062 6.66406 28.7617 6.52344C28.6211 6.38281 28.5508 6.20703 28.5508 5.99609ZM33.6719 12.8809L35.2246 7.66016H36.6895L34.4863 14H33.5723L33.6719 12.8809ZM32.4824 7.66016L34.0645 12.9043L34.1406 14H33.2266L31.0117 7.66016H32.4824ZM40.2754 14.1172C39.8066 14.1172 39.3828 14.041 39.0039 13.8887C38.6289 13.7324 38.3086 13.5156 38.043 13.2383C37.7812 12.9609 37.5801 12.6348 37.4395 12.2598C37.2988 11.8848 37.2285 11.4805 37.2285 11.0469V10.8125C37.2285 10.3164 37.3008 9.86719 37.4453 9.46484C37.5898 9.0625 37.791 8.71875 38.0488 8.43359C38.3066 8.14453 38.6113 7.92383 38.9629 7.77148C39.3145 7.61914 39.6953 7.54297 40.1055 7.54297C40.5586 7.54297 40.9551 7.61914 41.2949 7.77148C41.6348 7.92383 41.916 8.13867 42.1387 8.41602C42.3652 8.68945 42.5332 9.01562 42.6426 9.39453C42.7559 9.77344 42.8125 10.1914 42.8125 10.6484V11.252H37.9141V10.2383H41.418V10.127C41.4102 9.87305 41.3594 9.63477 41.2656 9.41211C41.1758 9.18945 41.0371 9.00977 40.8496 8.87305C40.6621 8.73633 40.4121 8.66797 40.0996 8.66797C39.8652 8.66797 39.6562 8.71875 39.4727 8.82031C39.293 8.91797 39.1426 9.06055 39.0215 9.24805C38.9004 9.43555 38.8066 9.66211 38.7402 9.92773C38.6777 10.1895 38.6465 10.4844 38.6465 10.8125V11.0469C38.6465 11.3242 38.6836 11.582 38.7578 11.8203C38.8359 12.0547 38.9492 12.2598 39.0977 12.4355C39.2461 12.6113 39.4258 12.75 39.6367 12.8516C39.8477 12.9492 40.0879 12.998 40.3574 12.998C40.6973 12.998 41 12.9297 41.2656 12.793C41.5312 12.6562 41.7617 12.4629 41.957 12.2129L42.7012 12.9336C42.5645 13.1328 42.3867 13.3242 42.168 13.5078C41.9492 13.6875 41.6816 13.834 41.3652 13.9473C41.0527 14.0605 40.6895 14.1172 40.2754 14.1172ZM45.332 8.86719V14H43.9199V7.66016H45.2676L45.332 8.86719ZM47.2715 7.61914L47.2598 8.93164C47.1738 8.91602 47.0801 8.9043 46.9785 8.89648C46.8809 8.88867 46.7832 8.88477 46.6855 8.88477C46.4434 8.88477 46.2305 8.91992 46.0469 8.99023C45.8633 9.05664 45.709 9.1543 45.584 9.2832C45.4629 9.4082 45.3691 9.56055 45.3027 9.74023C45.2363 9.91992 45.1973 10.1211 45.1855 10.3438L44.8633 10.3672C44.8633 9.96875 44.9023 9.59961 44.9805 9.25977C45.0586 8.91992 45.1758 8.62109 45.332 8.36328C45.4922 8.10547 45.6914 7.9043 45.9297 7.75977C46.1719 7.61523 46.4512 7.54297 46.7676 7.54297C46.8535 7.54297 46.9453 7.55078 47.043 7.56641C47.1445 7.58203 47.2207 7.59961 47.2715 7.61914ZM50.834 14.1172C50.3652 14.1172 49.9414 14.041 49.5625 13.8887C49.1875 13.7324 48.8672 13.5156 48.6016 13.2383C48.3398 12.9609 48.1387 12.6348 47.998 12.2598C47.8574 11.8848 47.7871 11.4805 47.7871 11.0469V10.8125C47.7871 10.3164 47.8594 9.86719 48.0039 9.46484C48.1484 9.0625 48.3496 8.71875 48.6074 8.43359C48.8652 8.14453 49.1699 7.92383 49.5215 7.77148C49.873 7.61914 50.2539 7.54297 50.6641 7.54297C51.1172 7.54297 51.5137 7.61914 51.8535 7.77148C52.1934 7.92383 52.4746 8.13867 52.6973 8.41602C52.9238 8.68945 53.0918 9.01562 53.2012 9.39453C53.3145 9.77344 53.3711 10.1914 53.3711 10.6484V11.252H48.4727V10.2383H51.9766V10.127C51.9688 9.87305 51.918 9.63477 51.8242 9.41211C51.7344 9.18945 51.5957 9.00977 51.4082 8.87305C51.2207 8.73633 50.9707 8.66797 50.6582 8.66797C50.4238 8.66797 50.2148 8.71875 50.0312 8.82031C49.8516 8.91797 49.7012 9.06055 49.5801 9.24805C49.459 9.43555 49.3652 9.66211 49.2988 9.92773C49.2363 10.1895 49.2051 10.4844 49.2051 10.8125V11.0469C49.2051 11.3242 49.2422 11.582 49.3164 11.8203C49.3945 12.0547 49.5078 12.2598 49.6562 12.4355C49.8047 12.6113 49.9844 12.75 50.1953 12.8516C50.4062 12.9492 50.6465 12.998 50.916 12.998C51.2559 12.998 51.5586 12.9297 51.8242 12.793C52.0898 12.6562 52.3203 12.4629 52.5156 12.2129L53.2598 12.9336C53.123 13.1328 52.9453 13.3242 52.7266 13.5078C52.5078 13.6875 52.2402 13.834 51.9238 13.9473C51.6113 14.0605 51.248 14.1172 50.834 14.1172ZM58.3398 12.6875V5H59.7578V14H58.4746L58.3398 12.6875ZM54.2148 10.9004V10.7773C54.2148 10.2969 54.2715 9.85938 54.3848 9.46484C54.498 9.06641 54.6621 8.72461 54.877 8.43945C55.0918 8.15039 55.3535 7.92969 55.6621 7.77734C55.9707 7.62109 56.3184 7.54297 56.7051 7.54297C57.0879 7.54297 57.4238 7.61719 57.7129 7.76562C58.002 7.91406 58.248 8.12695 58.4512 8.4043C58.6543 8.67773 58.8164 9.00586 58.9375 9.38867C59.0586 9.76758 59.1445 10.1895 59.1953 10.6543V11.0469C59.1445 11.5 59.0586 11.9141 58.9375 12.2891C58.8164 12.6641 58.6543 12.9883 58.4512 13.2617C58.248 13.5352 58 13.7461 57.707 13.8945C57.418 14.043 57.0801 14.1172 56.6934 14.1172C56.3105 14.1172 55.9648 14.0371 55.6562 13.877C55.3516 13.7168 55.0918 13.4922 54.877 13.2031C54.6621 12.9141 54.498 12.5742 54.3848 12.1836C54.2715 11.7891 54.2148 11.3613 54.2148 10.9004ZM55.627 10.7773V10.9004C55.627 11.1895 55.6523 11.459 55.7031 11.709C55.7578 11.959 55.8418 12.1797 55.9551 12.3711C56.0684 12.5586 56.2148 12.707 56.3945 12.8164C56.5781 12.9219 56.7969 12.9746 57.0508 12.9746C57.3711 12.9746 57.6348 12.9043 57.8418 12.7637C58.0488 12.623 58.2109 12.4336 58.3281 12.1953C58.4492 11.9531 58.5312 11.6836 58.5742 11.3867V10.3262C58.5508 10.0957 58.502 9.88086 58.4277 9.68164C58.3574 9.48242 58.2617 9.30859 58.1406 9.16016C58.0195 9.00781 57.8691 8.89062 57.6895 8.80859C57.5137 8.72266 57.3047 8.67969 57.0625 8.67969C56.8047 8.67969 56.5859 8.73438 56.4062 8.84375C56.2266 8.95312 56.0781 9.10352 55.9609 9.29492C55.8477 9.48633 55.7637 9.70898 55.709 9.96289C55.6543 10.2168 55.627 10.4883 55.627 10.7773Z" fill="#065F46"/>
</svg>
