<svg width="14" height="15" viewBox="0 0 14 15" fill="none" xmlns="http://www.w3.org/2000/svg">
<path d="M0.33374 14.9997V12.333H13.6671V14.9997H0.33374ZM3.00041 9.66634H3.93374L9.13374 4.48301L8.18374 3.53301L3.00041 8.73301V9.66634ZM1.66707 10.9997V8.16634L9.13374 0.716341C9.25596 0.594119 9.39763 0.499675 9.55874 0.433008C9.71985 0.366341 9.8893 0.333008 10.0671 0.333008C10.2449 0.333008 10.4171 0.366341 10.5837 0.433008C10.7504 0.499675 10.9004 0.599675 11.0337 0.733008L11.9504 1.66634C12.0837 1.78856 12.181 1.93301 12.2421 2.09967C12.3032 2.26634 12.3337 2.43856 12.3337 2.61634C12.3337 2.78301 12.3032 2.9469 12.2421 3.10801C12.181 3.26912 12.0837 3.41634 11.9504 3.54968L4.50041 10.9997H1.66707Z" fill="#6B7280"/>
</svg>
