<svg width="12" height="12" viewBox="0 0 12 12" fill="none" xmlns="http://www.w3.org/2000/svg">
<path d="M2.45817 5.41663L5.6665 0.166626L8.87484 5.41663H2.45817ZM8.87484 11.8333C8.14567 11.8333 7.52588 11.5781 7.01546 11.0677C6.50505 10.5573 6.24984 9.93746 6.24984 9.20829C6.24984 8.47913 6.50505 7.85933 7.01546 7.34892C7.52588 6.8385 8.14567 6.58329 8.87484 6.58329C9.604 6.58329 10.2238 6.8385 10.7342 7.34892C11.2446 7.85933 11.4998 8.47913 11.4998 9.20829C11.4998 9.93746 11.2446 10.5573 10.7342 11.0677C10.2238 11.5781 9.604 11.8333 8.87484 11.8333ZM0.416504 11.5416V6.87496H5.08317V11.5416H0.416504ZM8.87484 10.6666C9.28317 10.6666 9.62831 10.5257 9.91025 10.2437C10.1922 9.96177 10.3332 9.61663 10.3332 9.20829C10.3332 8.79996 10.1922 8.45482 9.91025 8.17288C9.62831 7.89093 9.28317 7.74996 8.87484 7.74996C8.4665 7.74996 8.12137 7.89093 7.83942 8.17288C7.55748 8.45482 7.4165 8.79996 7.4165 9.20829C7.4165 9.61663 7.55748 9.96177 7.83942 10.2437C8.12137 10.5257 8.4665 10.6666 8.87484 10.6666ZM1.58317 10.375H3.9165V8.04163H1.58317V10.375ZM4.529 4.24996H6.804L5.6665 2.41246L4.529 4.24996Z" fill="#6B7280"/>
</svg>
