<svg width="16" height="16" viewBox="0 0 16 16" fill="none" xmlns="http://www.w3.org/2000/svg">
<path d="M13.8333 13.8333V11.3333H2.16667V13.8333H13.8333ZM13.8333 9.66667V6.33333H2.16667V9.66667H13.8333ZM13.8333 4.66667V2.16667H2.16667V4.66667H13.8333ZM2.16667 15.5C1.70833 15.5 1.31597 15.3368 0.989583 15.0104C0.663194 14.684 0.5 14.2917 0.5 13.8333V2.16667C0.5 1.70833 0.663194 1.31597 0.989583 0.989583C1.31597 0.663194 1.70833 0.5 2.16667 0.5H13.8333C14.2917 0.5 14.684 0.663194 15.0104 0.989583C15.3368 1.31597 15.5 1.70833 15.5 2.16667V13.8333C15.5 14.2917 15.3368 14.684 15.0104 15.0104C14.684 15.3368 14.2917 15.5 13.8333 15.5H2.16667Z" fill="#6B0B00"/>
</svg>
