<svg width="76" height="20" viewBox="0 0 76 20" fill="none" xmlns="http://www.w3.org/2000/svg">
<rect x="0.5" y="0.5" width="75" height="19" rx="3.5" fill="#DBEAFE"/>
<rect x="0.5" y="0.5" width="75" height="19" rx="3.5" stroke="#93C5FD"/>
<path d="M18.0254 5.46875V14H16.5547L12.7285 7.88867V14H11.2578V5.46875H12.7285L16.5664 11.5918V5.46875H18.0254ZM22.4316 14.1172C21.9629 14.1172 21.5391 14.041 21.1602 13.8887C20.7852 13.7324 20.4648 13.5156 20.1992 13.2383C19.9375 12.9609 19.7363 12.6348 19.5957 12.2598C19.4551 11.8848 19.3848 11.4805 19.3848 11.0469V10.8125C19.3848 10.3164 19.457 9.86719 19.6016 9.46484C19.7461 9.0625 19.9473 8.71875 20.2051 8.43359C20.4629 8.14453 20.7676 7.92383 21.1191 7.77148C21.4707 7.61914 21.8516 7.54297 22.2617 7.54297C22.7148 7.54297 23.1113 7.61914 23.4512 7.77148C23.791 7.92383 24.0723 8.13867 24.2949 8.41602C24.5215 8.68945 24.6895 9.01562 24.7988 9.39453C24.9121 9.77344 24.9688 10.1914 24.9688 10.6484V11.252H20.0703V10.2383H23.5742V10.127C23.5664 9.87305 23.5156 9.63477 23.4219 9.41211C23.332 9.18945 23.1934 9.00977 23.0059 8.87305C22.8184 8.73633 22.5684 8.66797 22.2559 8.66797C22.0215 8.66797 21.8125 8.71875 21.6289 8.82031C21.4492 8.91797 21.2988 9.06055 21.1777 9.24805C21.0566 9.43555 20.9629 9.66211 20.8965 9.92773C20.834 10.1895 20.8027 10.4844 20.8027 10.8125V11.0469C20.8027 11.3242 20.8398 11.582 20.9141 11.8203C20.9922 12.0547 21.1055 12.2598 21.2539 12.4355C21.4023 12.6113 21.582 12.75 21.793 12.8516C22.0039 12.9492 22.2441 12.998 22.5137 12.998C22.8535 12.998 23.1562 12.9297 23.4219 12.793C23.6875 12.6562 23.918 12.4629 24.1133 12.2129L24.8574 12.9336C24.7207 13.1328 24.543 13.3242 24.3242 13.5078C24.1055 13.6875 23.8379 13.834 23.5215 13.9473C23.209 14.0605 22.8457 14.1172 22.4316 14.1172ZM27.793 12.5938L29.2578 7.66016H30.1602L29.9141 9.13672L28.4375 14H27.6289L27.793 12.5938ZM26.9316 7.66016L28.0742 12.6172L28.168 14H27.2656L25.5488 7.66016H26.9316ZM31.5312 12.5586L32.6387 7.66016H34.0156L32.3047 14H31.4023L31.5312 12.5586ZM30.3125 7.66016L31.7598 12.5352L31.9414 14H31.1328L29.6387 9.13086L29.3926 7.66016H30.3125ZM37.6953 10.9004V10.7656C37.6953 10.3086 37.7617 9.88477 37.8945 9.49414C38.0273 9.09961 38.2188 8.75781 38.4688 8.46875C38.7227 8.17578 39.0312 7.94922 39.3945 7.78906C39.7617 7.625 40.1758 7.54297 40.6367 7.54297C41.1016 7.54297 41.5156 7.625 41.8789 7.78906C42.2461 7.94922 42.5566 8.17578 42.8105 8.46875C43.0645 8.75781 43.2578 9.09961 43.3906 9.49414C43.5234 9.88477 43.5898 10.3086 43.5898 10.7656V10.9004C43.5898 11.3574 43.5234 11.7812 43.3906 12.1719C43.2578 12.5625 43.0645 12.9043 42.8105 13.1973C42.5566 13.4863 42.248 13.7129 41.8848 13.877C41.5215 14.0371 41.1094 14.1172 40.6484 14.1172C40.1836 14.1172 39.7676 14.0371 39.4004 13.877C39.0371 13.7129 38.7285 13.4863 38.4746 13.1973C38.2207 12.9043 38.0273 12.5625 37.8945 12.1719C37.7617 11.7812 37.6953 11.3574 37.6953 10.9004ZM39.1074 10.7656V10.9004C39.1074 11.1855 39.1367 11.4551 39.1953 11.709C39.2539 11.9629 39.3457 12.1855 39.4707 12.377C39.5957 12.5684 39.7559 12.7188 39.9512 12.8281C40.1465 12.9375 40.3789 12.9922 40.6484 12.9922C40.9102 12.9922 41.1367 12.9375 41.3281 12.8281C41.5234 12.7188 41.6836 12.5684 41.8086 12.377C41.9336 12.1855 42.0254 11.9629 42.084 11.709C42.1465 11.4551 42.1777 11.1855 42.1777 10.9004V10.7656C42.1777 10.4844 42.1465 10.2188 42.084 9.96875C42.0254 9.71484 41.9316 9.49023 41.8027 9.29492C41.6777 9.09961 41.5176 8.94727 41.3223 8.83789C41.1309 8.72461 40.9023 8.66797 40.6367 8.66797C40.3711 8.66797 40.1406 8.72461 39.9453 8.83789C39.7539 8.94727 39.5957 9.09961 39.4707 9.29492C39.3457 9.49023 39.2539 9.71484 39.1953 9.96875C39.1367 10.2188 39.1074 10.4844 39.1074 10.7656ZM46.1914 8.86719V14H44.7793V7.66016H46.127L46.1914 8.86719ZM48.1309 7.61914L48.1191 8.93164C48.0332 8.91602 47.9395 8.9043 47.8379 8.89648C47.7402 8.88867 47.6426 8.88477 47.5449 8.88477C47.3027 8.88477 47.0898 8.91992 46.9062 8.99023C46.7227 9.05664 46.5684 9.1543 46.4434 9.2832C46.3223 9.4082 46.2285 9.56055 46.1621 9.74023C46.0957 9.91992 46.0566 10.1211 46.0449 10.3438L45.7227 10.3672C45.7227 9.96875 45.7617 9.59961 45.8398 9.25977C45.918 8.91992 46.0352 8.62109 46.1914 8.36328C46.3516 8.10547 46.5508 7.9043 46.7891 7.75977C47.0312 7.61523 47.3105 7.54297 47.627 7.54297C47.7129 7.54297 47.8047 7.55078 47.9023 7.56641C48.0039 7.58203 48.0801 7.59961 48.1309 7.61914ZM52.7656 12.6875V5H54.1836V14H52.9004L52.7656 12.6875ZM48.6406 10.9004V10.7773C48.6406 10.2969 48.6973 9.85938 48.8105 9.46484C48.9238 9.06641 49.0879 8.72461 49.3027 8.43945C49.5176 8.15039 49.7793 7.92969 50.0879 7.77734C50.3965 7.62109 50.7441 7.54297 51.1309 7.54297C51.5137 7.54297 51.8496 7.61719 52.1387 7.76562C52.4277 7.91406 52.6738 8.12695 52.877 8.4043C53.0801 8.67773 53.2422 9.00586 53.3633 9.38867C53.4844 9.76758 53.5703 10.1895 53.6211 10.6543V11.0469C53.5703 11.5 53.4844 11.9141 53.3633 12.2891C53.2422 12.6641 53.0801 12.9883 52.877 13.2617C52.6738 13.5352 52.4258 13.7461 52.1328 13.8945C51.8438 14.043 51.5059 14.1172 51.1191 14.1172C50.7363 14.1172 50.3906 14.0371 50.082 13.877C49.7773 13.7168 49.5176 13.4922 49.3027 13.2031C49.0879 12.9141 48.9238 12.5742 48.8105 12.1836C48.6973 11.7891 48.6406 11.3613 48.6406 10.9004ZM50.0527 10.7773V10.9004C50.0527 11.1895 50.0781 11.459 50.1289 11.709C50.1836 11.959 50.2676 12.1797 50.3809 12.3711C50.4941 12.5586 50.6406 12.707 50.8203 12.8164C51.0039 12.9219 51.2227 12.9746 51.4766 12.9746C51.7969 12.9746 52.0605 12.9043 52.2676 12.7637C52.4746 12.623 52.6367 12.4336 52.7539 12.1953C52.875 11.9531 52.957 11.6836 53 11.3867V10.3262C52.9766 10.0957 52.9277 9.88086 52.8535 9.68164C52.7832 9.48242 52.6875 9.30859 52.5664 9.16016C52.4453 9.00781 52.2949 8.89062 52.1152 8.80859C51.9395 8.72266 51.7305 8.67969 51.4883 8.67969C51.2305 8.67969 51.0117 8.73438 50.832 8.84375C50.6523 8.95312 50.5039 9.10352 50.3867 9.29492C50.2734 9.48633 50.1895 9.70898 50.1348 9.96289C50.0801 10.2168 50.0527 10.4883 50.0527 10.7773ZM58.4551 14.1172C57.9863 14.1172 57.5625 14.041 57.1836 13.8887C56.8086 13.7324 56.4883 13.5156 56.2227 13.2383C55.9609 12.9609 55.7598 12.6348 55.6191 12.2598C55.4785 11.8848 55.4082 11.4805 55.4082 11.0469V10.8125C55.4082 10.3164 55.4805 9.86719 55.625 9.46484C55.7695 9.0625 55.9707 8.71875 56.2285 8.43359C56.4863 8.14453 56.791 7.92383 57.1426 7.77148C57.4941 7.61914 57.875 7.54297 58.2852 7.54297C58.7383 7.54297 59.1348 7.61914 59.4746 7.77148C59.8145 7.92383 60.0957 8.13867 60.3184 8.41602C60.5449 8.68945 60.7129 9.01562 60.8223 9.39453C60.9355 9.77344 60.9922 10.1914 60.9922 10.6484V11.252H56.0938V10.2383H59.5977V10.127C59.5898 9.87305 59.5391 9.63477 59.4453 9.41211C59.3555 9.18945 59.2168 9.00977 59.0293 8.87305C58.8418 8.73633 58.5918 8.66797 58.2793 8.66797C58.0449 8.66797 57.8359 8.71875 57.6523 8.82031C57.4727 8.91797 57.3223 9.06055 57.2012 9.24805C57.0801 9.43555 56.9863 9.66211 56.9199 9.92773C56.8574 10.1895 56.8262 10.4844 56.8262 10.8125V11.0469C56.8262 11.3242 56.8633 11.582 56.9375 11.8203C57.0156 12.0547 57.1289 12.2598 57.2773 12.4355C57.4258 12.6113 57.6055 12.75 57.8164 12.8516C58.0273 12.9492 58.2676 12.998 58.5371 12.998C58.877 12.998 59.1797 12.9297 59.4453 12.793C59.7109 12.6562 59.9414 12.4629 60.1367 12.2129L60.8809 12.9336C60.7441 13.1328 60.5664 13.3242 60.3477 13.5078C60.1289 13.6875 59.8613 13.834 59.5449 13.9473C59.2324 14.0605 58.8691 14.1172 58.4551 14.1172ZM63.5117 8.86719V14H62.0996V7.66016H63.4473L63.5117 8.86719ZM65.4512 7.61914L65.4395 8.93164C65.3535 8.91602 65.2598 8.9043 65.1582 8.89648C65.0605 8.88867 64.9629 8.88477 64.8652 8.88477C64.623 8.88477 64.4102 8.91992 64.2266 8.99023C64.043 9.05664 63.8887 9.1543 63.7637 9.2832C63.6426 9.4082 63.5488 9.56055 63.4824 9.74023C63.416 9.91992 63.377 10.1211 63.3652 10.3438L63.043 10.3672C63.043 9.96875 63.082 9.59961 63.1602 9.25977C63.2383 8.91992 63.3555 8.62109 63.5117 8.36328C63.6719 8.10547 63.8711 7.9043 64.1094 7.75977C64.3516 7.61523 64.6309 7.54297 64.9473 7.54297C65.0332 7.54297 65.125 7.55078 65.2227 7.56641C65.3242 7.58203 65.4004 7.59961 65.4512 7.61914Z" fill="#065F46"/>
</svg>
