<svg width="66" height="20" viewBox="0 0 66 20" fill="none" xmlns="http://www.w3.org/2000/svg">
<rect x="0.5" y="0.5" width="65" height="19" rx="3.5" fill="#FEF3C7"/>
<rect x="0.5" y="0.5" width="65" height="19" rx="3.5" stroke="#FCD34D"/>
<path d="M17.8418 9.5V9.96875C17.8418 10.6133 17.7578 11.1914 17.5898 11.7031C17.4219 12.2148 17.1816 12.6504 16.8691 13.0098C16.5605 13.3691 16.1895 13.6445 15.7559 13.8359C15.3223 14.0234 14.8418 14.1172 14.3145 14.1172C13.791 14.1172 13.3125 14.0234 12.8789 13.8359C12.4492 13.6445 12.0762 13.3691 11.7598 13.0098C11.4434 12.6504 11.1973 12.2148 11.0215 11.7031C10.8496 11.1914 10.7637 10.6133 10.7637 9.96875V9.5C10.7637 8.85547 10.8496 8.2793 11.0215 7.77148C11.1934 7.25977 11.4355 6.82422 11.748 6.46484C12.0645 6.10156 12.4375 5.82617 12.8672 5.63867C13.3008 5.44727 13.7793 5.35156 14.3027 5.35156C14.8301 5.35156 15.3105 5.44727 15.7441 5.63867C16.1777 5.82617 16.5508 6.10156 16.8633 6.46484C17.1758 6.82422 17.416 7.25977 17.584 7.77148C17.7559 8.2793 17.8418 8.85547 17.8418 9.5ZM16.3711 9.96875V9.48828C16.3711 9.01172 16.3242 8.5918 16.2305 8.22852C16.1406 7.86133 16.0059 7.55469 15.8262 7.30859C15.6504 7.05859 15.4336 6.87109 15.1758 6.74609C14.918 6.61719 14.627 6.55273 14.3027 6.55273C13.9785 6.55273 13.6895 6.61719 13.4355 6.74609C13.1816 6.87109 12.9648 7.05859 12.7852 7.30859C12.6094 7.55469 12.4746 7.86133 12.3809 8.22852C12.2871 8.5918 12.2402 9.01172 12.2402 9.48828V9.96875C12.2402 10.4453 12.2871 10.8672 12.3809 11.2344C12.4746 11.6016 12.6113 11.9121 12.791 12.166C12.9746 12.416 13.1934 12.6055 13.4473 12.7344C13.7012 12.8594 13.9902 12.9219 14.3145 12.9219C14.6426 12.9219 14.9336 12.8594 15.1875 12.7344C15.4414 12.6055 15.6562 12.416 15.832 12.166C16.0078 11.9121 16.1406 11.6016 16.2305 11.2344C16.3242 10.8672 16.3711 10.4453 16.3711 9.96875ZM20.5723 9.01367V14H19.1602V7.66016H20.4902L20.5723 9.01367ZM20.3203 10.5957L19.8633 10.5898C19.8672 10.1406 19.9297 9.72852 20.0508 9.35352C20.1758 8.97852 20.3477 8.65625 20.5664 8.38672C20.7891 8.11719 21.0547 7.91016 21.3633 7.76562C21.6719 7.61719 22.0156 7.54297 22.3945 7.54297C22.6992 7.54297 22.9746 7.58594 23.2207 7.67188C23.4707 7.75391 23.6836 7.88867 23.8594 8.07617C24.0391 8.26367 24.1758 8.50781 24.2695 8.80859C24.3633 9.10547 24.4102 9.4707 24.4102 9.9043V14H22.9922V9.89844C22.9922 9.59375 22.9473 9.35352 22.8574 9.17773C22.7715 8.99805 22.6445 8.87109 22.4766 8.79688C22.3125 8.71875 22.1074 8.67969 21.8613 8.67969C21.6191 8.67969 21.4023 8.73047 21.2109 8.83203C21.0195 8.93359 20.8574 9.07227 20.7246 9.24805C20.5957 9.42383 20.4961 9.62695 20.4258 9.85742C20.3555 10.0879 20.3203 10.334 20.3203 10.5957ZM34.0195 11.2227H35.4844C35.4375 11.7812 35.2812 12.2793 35.0156 12.7168C34.75 13.1504 34.377 13.4922 33.8965 13.7422C33.416 13.9922 32.832 14.1172 32.1445 14.1172C31.6172 14.1172 31.1426 14.0234 30.7207 13.8359C30.2988 13.6445 29.9375 13.375 29.6367 13.0273C29.3359 12.6758 29.1055 12.252 28.9453 11.7559C28.7891 11.2598 28.7109 10.7051 28.7109 10.0918V9.38281C28.7109 8.76953 28.791 8.21484 28.9512 7.71875C29.1152 7.22266 29.3496 6.79883 29.6543 6.44727C29.959 6.0918 30.3242 5.82031 30.75 5.63281C31.1797 5.44531 31.6621 5.35156 32.1973 5.35156C32.877 5.35156 33.4512 5.47656 33.9199 5.72656C34.3887 5.97656 34.752 6.32227 35.0098 6.76367C35.2715 7.20508 35.4316 7.71094 35.4902 8.28125H34.0254C33.9863 7.91406 33.9004 7.59961 33.7676 7.33789C33.6387 7.07617 33.4473 6.87695 33.1934 6.74023C32.9395 6.59961 32.6074 6.5293 32.1973 6.5293C31.8613 6.5293 31.5684 6.5918 31.3184 6.7168C31.0684 6.8418 30.8594 7.02539 30.6914 7.26758C30.5234 7.50977 30.3965 7.80859 30.3105 8.16406C30.2285 8.51562 30.1875 8.91797 30.1875 9.37109V10.0918C30.1875 10.5215 30.2246 10.9121 30.2988 11.2637C30.377 11.6113 30.4941 11.9102 30.6504 12.1602C30.8105 12.4102 31.0137 12.6035 31.2598 12.7402C31.5059 12.877 31.8008 12.9453 32.1445 12.9453C32.5625 12.9453 32.9004 12.8789 33.1582 12.7461C33.4199 12.6133 33.6172 12.4199 33.75 12.166C33.8867 11.9082 33.9766 11.5938 34.0195 11.2227ZM36.4102 10.9004V10.7656C36.4102 10.3086 36.4766 9.88477 36.6094 9.49414C36.7422 9.09961 36.9336 8.75781 37.1836 8.46875C37.4375 8.17578 37.7461 7.94922 38.1094 7.78906C38.4766 7.625 38.8906 7.54297 39.3516 7.54297C39.8164 7.54297 40.2305 7.625 40.5938 7.78906C40.9609 7.94922 41.2715 8.17578 41.5254 8.46875C41.7793 8.75781 41.9727 9.09961 42.1055 9.49414C42.2383 9.88477 42.3047 10.3086 42.3047 10.7656V10.9004C42.3047 11.3574 42.2383 11.7812 42.1055 12.1719C41.9727 12.5625 41.7793 12.9043 41.5254 13.1973C41.2715 13.4863 40.9629 13.7129 40.5996 13.877C40.2363 14.0371 39.8242 14.1172 39.3633 14.1172C38.8984 14.1172 38.4824 14.0371 38.1152 13.877C37.752 13.7129 37.4434 13.4863 37.1895 13.1973C36.9355 12.9043 36.7422 12.5625 36.6094 12.1719C36.4766 11.7812 36.4102 11.3574 36.4102 10.9004ZM37.8223 10.7656V10.9004C37.8223 11.1855 37.8516 11.4551 37.9102 11.709C37.9688 11.9629 38.0605 12.1855 38.1855 12.377C38.3105 12.5684 38.4707 12.7188 38.666 12.8281C38.8613 12.9375 39.0938 12.9922 39.3633 12.9922C39.625 12.9922 39.8516 12.9375 40.043 12.8281C40.2383 12.7188 40.3984 12.5684 40.5234 12.377C40.6484 12.1855 40.7402 11.9629 40.7988 11.709C40.8613 11.4551 40.8926 11.1855 40.8926 10.9004V10.7656C40.8926 10.4844 40.8613 10.2188 40.7988 9.96875C40.7402 9.71484 40.6465 9.49023 40.5176 9.29492C40.3926 9.09961 40.2324 8.94727 40.0371 8.83789C39.8457 8.72461 39.6172 8.66797 39.3516 8.66797C39.0859 8.66797 38.8555 8.72461 38.6602 8.83789C38.4688 8.94727 38.3105 9.09961 38.1855 9.29492C38.0605 9.49023 37.9688 9.71484 37.9102 9.96875C37.8516 10.2188 37.8223 10.4844 37.8223 10.7656ZM43.2188 10.9004V10.7656C43.2188 10.3086 43.2852 9.88477 43.418 9.49414C43.5508 9.09961 43.7422 8.75781 43.9922 8.46875C44.2461 8.17578 44.5547 7.94922 44.918 7.78906C45.2852 7.625 45.6992 7.54297 46.1602 7.54297C46.625 7.54297 47.0391 7.625 47.4023 7.78906C47.7695 7.94922 48.0801 8.17578 48.334 8.46875C48.5879 8.75781 48.7812 9.09961 48.9141 9.49414C49.0469 9.88477 49.1133 10.3086 49.1133 10.7656V10.9004C49.1133 11.3574 49.0469 11.7812 48.9141 12.1719C48.7812 12.5625 48.5879 12.9043 48.334 13.1973C48.0801 13.4863 47.7715 13.7129 47.4082 13.877C47.0449 14.0371 46.6328 14.1172 46.1719 14.1172C45.707 14.1172 45.291 14.0371 44.9238 13.877C44.5605 13.7129 44.252 13.4863 43.998 13.1973C43.7441 12.9043 43.5508 12.5625 43.418 12.1719C43.2852 11.7812 43.2188 11.3574 43.2188 10.9004ZM44.6309 10.7656V10.9004C44.6309 11.1855 44.6602 11.4551 44.7188 11.709C44.7773 11.9629 44.8691 12.1855 44.9941 12.377C45.1191 12.5684 45.2793 12.7188 45.4746 12.8281C45.6699 12.9375 45.9023 12.9922 46.1719 12.9922C46.4336 12.9922 46.6602 12.9375 46.8516 12.8281C47.0469 12.7188 47.207 12.5684 47.332 12.377C47.457 12.1855 47.5488 11.9629 47.6074 11.709C47.6699 11.4551 47.7012 11.1855 47.7012 10.9004V10.7656C47.7012 10.4844 47.6699 10.2188 47.6074 9.96875C47.5488 9.71484 47.4551 9.49023 47.3262 9.29492C47.2012 9.09961 47.041 8.94727 46.8457 8.83789C46.6543 8.72461 46.4258 8.66797 46.1602 8.66797C45.8945 8.66797 45.6641 8.72461 45.4688 8.83789C45.2773 8.94727 45.1191 9.09961 44.9941 9.29492C44.8691 9.49023 44.7773 9.71484 44.7188 9.96875C44.6602 10.2188 44.6309 10.4844 44.6309 10.7656ZM51.7207 5V14H50.3027V5H51.7207ZM55.6582 7.66016L52.8984 10.7188L51.3867 12.2656L51.0176 11.0703L52.1602 9.6582L53.9531 7.66016H55.6582ZM54.2578 14L52.2012 11.0234L53.0918 10.0332L55.8926 14H54.2578Z" fill="#92400E"/>
</svg>
