<svg width="12" height="12" viewBox="0 0 12 12" fill="none" xmlns="http://www.w3.org/2000/svg">
<path d="M2.41234 8.97472C2.90817 8.59555 3.46234 8.29659 4.07484 8.07784C4.68734 7.85909 5.329 7.74971 5.99984 7.74971C6.67067 7.74971 7.31234 7.85909 7.92484 8.07784C8.53734 8.29659 9.0915 8.59555 9.58734 8.97472C9.92761 8.5761 10.1925 8.12402 10.3821 7.61847C10.5717 7.11291 10.6665 6.57333 10.6665 5.99971C10.6665 4.70666 10.212 3.60562 9.30296 2.69659C8.39393 1.78756 7.29289 1.33305 5.99984 1.33305C4.70678 1.33305 3.60574 1.78756 2.69671 2.69659C1.78768 3.60562 1.33317 4.70666 1.33317 5.99971C1.33317 6.57333 1.42796 7.11291 1.61755 7.61847C1.80713 8.12402 2.07206 8.5761 2.41234 8.97472ZM5.99984 6.58305C5.42623 6.58305 4.94255 6.38617 4.5488 5.99242C4.15505 5.59867 3.95817 5.11499 3.95817 4.54138C3.95817 3.96777 4.15505 3.48409 4.5488 3.09034C4.94255 2.69659 5.42623 2.49972 5.99984 2.49972C6.57345 2.49972 7.05713 2.69659 7.45088 3.09034C7.84463 3.48409 8.0415 3.96777 8.0415 4.54138C8.0415 5.11499 7.84463 5.59867 7.45088 5.99242C7.05713 6.38617 6.57345 6.58305 5.99984 6.58305ZM5.99984 11.833C5.19289 11.833 4.43456 11.6799 3.72484 11.3737C3.01511 11.0674 2.39775 10.6518 1.87275 10.1268C1.34775 9.6018 0.932129 8.98444 0.625879 8.27472C0.319629 7.56499 0.166504 6.80666 0.166504 5.99971C0.166504 5.19277 0.319629 4.43444 0.625879 3.72471C0.932129 3.01499 1.34775 2.39763 1.87275 1.87263C2.39775 1.34763 3.01511 0.932007 3.72484 0.625757C4.43456 0.319507 5.19289 0.166382 5.99984 0.166382C6.80678 0.166382 7.56511 0.319507 8.27484 0.625757C8.98456 0.932007 9.60192 1.34763 10.1269 1.87263C10.6519 2.39763 11.0675 3.01499 11.3738 3.72471C11.68 4.43444 11.8332 5.19277 11.8332 5.99971C11.8332 6.80666 11.68 7.56499 11.3738 8.27472C11.0675 8.98444 10.6519 9.6018 10.1269 10.1268C9.60192 10.6518 8.98456 11.0674 8.27484 11.3737C7.56511 11.6799 6.80678 11.833 5.99984 11.833ZM5.99984 10.6664C6.51511 10.6664 7.00123 10.591 7.45817 10.4403C7.91511 10.2896 8.33317 10.0733 8.71234 9.79138C8.33317 9.50944 7.91511 9.29312 7.45817 9.14242C7.00123 8.99173 6.51511 8.91638 5.99984 8.91638C5.48456 8.91638 4.99845 8.99173 4.5415 9.14242C4.08456 9.29312 3.6665 9.50944 3.28734 9.79138C3.6665 10.0733 4.08456 10.2896 4.5415 10.4403C4.99845 10.591 5.48456 10.6664 5.99984 10.6664ZM5.99984 5.41638C6.25261 5.41638 6.46164 5.33374 6.62692 5.16846C6.7922 5.00319 6.87484 4.79416 6.87484 4.54138C6.87484 4.2886 6.7922 4.07958 6.62692 3.9143C6.46164 3.74902 6.25261 3.66638 5.99984 3.66638C5.74706 3.66638 5.53803 3.74902 5.37275 3.9143C5.20748 4.07958 5.12484 4.2886 5.12484 4.54138C5.12484 4.79416 5.20748 5.00319 5.37275 5.16846C5.53803 5.33374 5.74706 5.41638 5.99984 5.41638Z" fill="#6B7280"/>
</svg>
