<svg width="18" height="16" viewBox="0 0 18 16" fill="none" xmlns="http://www.w3.org/2000/svg">
<path d="M12.4997 4.66667V2.16667H5.83301V4.66667H4.16634V0.5H14.1663V4.66667H12.4997ZM14.1663 8.41667C14.4025 8.41667 14.6004 8.33681 14.7601 8.17708C14.9198 8.01736 14.9997 7.81944 14.9997 7.58333C14.9997 7.34722 14.9198 7.14931 14.7601 6.98958C14.6004 6.82986 14.4025 6.75 14.1663 6.75C13.9302 6.75 13.7323 6.82986 13.5726 6.98958C13.4129 7.14931 13.333 7.34722 13.333 7.58333C13.333 7.81944 13.4129 8.01736 13.5726 8.17708C13.7323 8.33681 13.9302 8.41667 14.1663 8.41667ZM12.4997 13.8333V10.5H5.83301V13.8333H12.4997ZM14.1663 15.5H4.16634V12.1667H0.833008V7.16667C0.833008 6.45833 1.07606 5.86458 1.56217 5.38542C2.04829 4.90625 2.63856 4.66667 3.33301 4.66667H14.9997C15.708 4.66667 16.3018 4.90625 16.7809 5.38542C17.2601 5.86458 17.4997 6.45833 17.4997 7.16667V12.1667H14.1663V15.5ZM15.833 10.5V7.16667C15.833 6.93056 15.7531 6.73264 15.5934 6.57292C15.4337 6.41319 15.2358 6.33333 14.9997 6.33333H3.33301C3.0969 6.33333 2.89898 6.41319 2.73926 6.57292C2.57954 6.73264 2.49967 6.93056 2.49967 7.16667V10.5H4.16634V8.83333H14.1663V10.5H15.833Z" fill="#6B7280"/>
</svg>
