<svg width="13" height="12" viewBox="0 0 13 12" fill="none" xmlns="http://www.w3.org/2000/svg">
<path d="M12.1497 7.31246L7.97884 11.4833C7.86217 11.6 7.73092 11.6875 7.58509 11.7458C7.43926 11.8041 7.29342 11.8333 7.14759 11.8333C7.00176 11.8333 6.85592 11.8041 6.71009 11.7458C6.56426 11.6875 6.43301 11.6 6.31634 11.4833L1.16842 6.33538C1.06148 6.22843 0.978841 6.10447 0.920508 5.9635C0.862174 5.82253 0.833008 5.67427 0.833008 5.51871V1.33329C0.833008 1.01246 0.947244 0.737807 1.17572 0.509334C1.40419 0.280862 1.67884 0.166626 1.99967 0.166626H6.18509C6.34065 0.166626 6.49134 0.198223 6.63717 0.261418C6.78301 0.324612 6.9094 0.409682 7.01634 0.516626L12.1497 5.66454C12.2663 5.78121 12.3514 5.91246 12.4049 6.05829C12.4584 6.20413 12.4851 6.34996 12.4851 6.49579C12.4851 6.64163 12.4584 6.78503 12.4049 6.926C12.3514 7.06697 12.2663 7.19579 12.1497 7.31246ZM7.14759 10.6666L11.3184 6.49579L6.17051 1.33329H1.99967V5.50413L7.14759 10.6666ZM3.45801 3.66663C3.70106 3.66663 3.90766 3.58156 4.0778 3.41142C4.24794 3.24128 4.33301 3.03468 4.33301 2.79163C4.33301 2.54857 4.24794 2.34197 4.0778 2.17183C3.90766 2.0017 3.70106 1.91663 3.45801 1.91663C3.21495 1.91663 3.00835 2.0017 2.83822 2.17183C2.66808 2.34197 2.58301 2.54857 2.58301 2.79163C2.58301 3.03468 2.66808 3.24128 2.83822 3.41142C3.00835 3.58156 3.21495 3.66663 3.45801 3.66663Z" fill="#6B7280"/>
</svg>
