<svg width="12" height="10" viewBox="0 0 12 10" fill="none" xmlns="http://www.w3.org/2000/svg">
<path d="M1.52301 3.25004H10.4772L9.98134 1.50004H2.03342L1.52301 3.25004ZM8.80009 4.41671H3.21467L3.05426 5.58337H8.94592L8.80009 4.41671ZM1.33342 9.66671L2.04801 4.41671H0.750091C0.555646 4.41671 0.402521 4.33893 0.290716 4.18337C0.17891 4.02782 0.147313 3.85768 0.195924 3.67296L1.02717 0.756291C1.06606 0.629902 1.13412 0.527818 1.23134 0.450041C1.32856 0.372263 1.44523 0.333374 1.58134 0.333374H10.4188C10.555 0.333374 10.6716 0.372263 10.7688 0.450041C10.8661 0.527818 10.9341 0.629902 10.973 0.756291L11.8043 3.67296C11.8529 3.85768 11.8213 4.02782 11.7095 4.18337C11.5977 4.33893 11.4445 4.41671 11.2501 4.41671H9.96676L10.6668 9.66671H9.50009L9.10634 6.75004H2.89384L2.50009 9.66671H1.33342Z" fill="#6B7280"/>
</svg>
