<svg width="16" height="11" viewBox="0 0 16 11" fill="none" xmlns="http://www.w3.org/2000/svg">
<path d="M7.99959 8.66699C8.83293 8.66699 9.54126 8.37533 10.1246 7.79199C10.7079 7.20866 10.9996 6.50033 10.9996 5.66699C10.9996 4.83366 10.7079 4.12533 10.1246 3.54199C9.54126 2.95866 8.83293 2.66699 7.99959 2.66699C7.16626 2.66699 6.45793 2.95866 5.87459 3.54199C5.29126 4.12533 4.99959 4.83366 4.99959 5.66699C4.99959 6.50033 5.29126 7.20866 5.87459 7.79199C6.45793 8.37533 7.16626 8.66699 7.99959 8.66699ZM7.99959 7.46699C7.49959 7.46699 7.07459 7.29199 6.72459 6.94199C6.37459 6.59199 6.19959 6.16699 6.19959 5.66699C6.19959 5.16699 6.37459 4.74199 6.72459 4.39199C7.07459 4.04199 7.49959 3.86699 7.99959 3.86699C8.49959 3.86699 8.92459 4.04199 9.2746 4.39199C9.6246 4.74199 9.79959 5.16699 9.79959 5.66699C9.79959 6.16699 9.6246 6.59199 9.2746 6.94199C8.92459 7.29199 8.49959 7.46699 7.99959 7.46699ZM7.99959 10.667C6.37737 10.667 4.89959 10.2142 3.56626 9.30866C2.23293 8.4031 1.26626 7.18921 0.66626 5.66699C1.26626 4.14477 2.23293 2.93088 3.56626 2.02533C4.89959 1.11977 6.37737 0.666992 7.99959 0.666992C9.62182 0.666992 11.0996 1.11977 12.4329 2.02533C13.7663 2.93088 14.7329 4.14477 15.3329 5.66699C14.7329 7.18921 13.7663 8.4031 12.4329 9.30866C11.0996 10.2142 9.62182 10.667 7.99959 10.667ZM7.99959 9.33366C9.25515 9.33366 10.4079 9.0031 11.4579 8.34199C12.5079 7.68088 13.3107 6.78921 13.8663 5.66699C13.3107 4.54477 12.5079 3.6531 11.4579 2.99199C10.4079 2.33088 9.25515 2.00033 7.99959 2.00033C6.74404 2.00033 5.59126 2.33088 4.54126 2.99199C3.49126 3.6531 2.68848 4.54477 2.13293 5.66699C2.68848 6.78921 3.49126 7.68088 4.54126 8.34199C5.59126 9.0031 6.74404 9.33366 7.99959 9.33366Z" fill="#6B7280"/>
</svg>
